# xmcd
#
# Track frame offsets:
#	150
#	14026
#	26432
#	40665
#	54374
#	68591
#	82332
#	95329
#	107398
#	121011
#	134366
#	147549
#	161223
#	174502
#	188177
#	202328
#	215308
#	228760
#	242929
#	255607
#	269441
#	282735
#	296666
#	310571
#
# Disc length: 4310 seconds
#
# Revision: 1
# Processed by: cddbd v1.5.1PL0 Copyright (c) Steve Scherf et al.
# Submitted via: audiograbber 1.83.01
#
DISCID=6510d418
DTITLE=Female Blues Singers - Complete Recorded Works - 1997 - Vol 9 - H2 (1923
DTITLE=1930) DOCD-5513
DYEAR=1997
DGENRE=Blues
TTITLE0=Black Man Blues
TTITLE1=Worried 'Bout Him Blues
TTITLE2=Brownskin Man
TTITLE3=Traveling Blues
TTITLE4=Mama Don't Want Sweet Man Anymore
TTITLE5=Hateful Blues
TTITLE6=If You Sheik On Your Mama, Mama's Gonna Sheba On You
TTITLE7=Jelly Roll Blues
TTITLE8=Lady Daddy Blues
TTITLE9=Consolation Blues
TTITLE10=Low Down Despondent Blues
TTITLE11=Family Skeleton Blues
TTITLE12=Sinful Blues
TTITLE13=Freight Train Blues
TTITLE14=Ghost Walkin' Blues
TTITLE15=Old North State Blues
TTITLE16=Graveyard Dream Blues
TTITLE17=Mason-Dixon Blues
TTITLE18=An Awful Moanin' Blues
TTITLE19=If You Don't, I Know Who Will
TTITLE20=Black Man (Be On Yo' Way)
TTITLE21=Do Right Blues
TTITLE22=St. Joe's Infirmary (Those Gambler's Blues)
TTITLE23=Texas Twist
EXTD=Document Records, Austria
EXTT0=
EXTT1=
EXTT2=
EXTT3=
EXTT4=
EXTT5=
EXTT6=
EXTT7=
EXTT8=
EXTT9=
EXTT10=
EXTT11=
EXTT12=
EXTT13=
EXTT14=
EXTT15=
EXTT16=
EXTT17=
EXTT18=
EXTT19=
EXTT20=
EXTT21=
EXTT22=
EXTT23=
PLAYORDER=
